<svg xmlns="http://www.w3.org/2000/svg" xml:space="preserve" id="development" x="0" y="0" enable-background="new 0 0 64 64" version="1.1" viewBox="0 0 64 64">
  <path fill="#8a8bc4" d="M39.6,58.31v2.17c0,0.14-0.12,0.25-0.25,0.25H14.6c-0.14,0-0.24-0.12-0.24-0.25v-2.17
				c0-0.14,0.12-0.24,0.24-0.24h24.74C39.48,58.07,39.6,58.18,39.6,58.31z"></path>
  <path fill="#ffc064" d="M60.08,18.31c-0.03-0.02-0.06-0.05-0.08-0.09c-0.15-0.2-0.2-0.44-0.13-0.68c0-0.01,0-0.01,0.01-0.02
					c0.22-0.8,0.34-1.63,0.34-2.46c0-0.85-0.12-1.68-0.34-2.45c-0.01-0.01-0.01-0.01-0.01-0.02c-0.04-0.12-0.04-0.24-0.02-0.36
					c0.01-0.03,0.02-0.07,0.03-0.1c0.01-0.04,0.03-0.08,0.05-0.12c0.02-0.05,0.05-0.1,0.09-0.14c0.04-0.06,0.1-0.11,0.16-0.16
					l2.01-1.39L60.83,8l-2.2,1.03c-0.06,0.02-0.12,0.04-0.19,0.06c-0.09,0.02-0.19,0.02-0.28,0c-0.01,0-0.02-0.01-0.03,0
					c-0.04-0.01-0.08-0.02-0.11-0.04c-0.05-0.02-0.1-0.04-0.14-0.07c-0.06-0.03-0.11-0.07-0.16-0.12c-1.16-1.22-2.63-2.08-4.23-2.47
					c-0.01,0-0.03-0.01-0.04-0.01c-0.16-0.04-0.29-0.12-0.39-0.23c-0.04-0.05-0.08-0.1-0.11-0.16c-0.02-0.03-0.03-0.06-0.04-0.09
					c-0.03-0.07-0.05-0.14-0.06-0.21l-0.2-2.43h-2.69l-0.2,2.42c-0.03,0.3-0.22,0.55-0.49,0.65c-0.03,0.02-0.07,0.03-0.11,0.04
					c-0.02,0-0.04,0.01-0.06,0.01H49.1c-1.6,0.4-3.04,1.25-4.21,2.47c-0.04,0.04-0.08,0.08-0.13,0.1c-0.01,0.02-0.03,0.03-0.05,0.03
					c-0.05,0.03-0.1,0.05-0.15,0.07c-0.08,0.03-0.17,0.04-0.24,0.04c-0.01,0-0.01,0-0.02,0c-0.05,0-0.1-0.01-0.15-0.02
					c-0.06-0.01-0.12-0.03-0.17-0.05l-2.2-1.04l-1.36,2.33l2,1.39c0.06,0.04,0.11,0.09,0.15,0.14c0.04,0.04,0.07,0.09,0.1,0.15
					c0.06,0.11,0.09,0.23,0.09,0.36c0,0.07-0.01,0.15-0.03,0.21c0,0.02-0.01,0.03-0.01,0.05c-0.14,0.47-0.23,0.95-0.28,1.42
					c-0.04,0.33-0.06,0.67-0.06,1c0,0.6,0.06,1.18,0.18,1.75c0.01,0.04,0.02,0.08,0.02,0.13c0.05,0.2,0.1,0.4,0.16,0.6
					c0.04,0.13,0.04,0.24,0.02,0.36c-0.01,0.04-0.02,0.07-0.03,0.1c-0.03,0.09-0.07,0.17-0.12,0.23c-0.02,0.04-0.05,0.07-0.08,0.09
					c-0.03,0.03-0.07,0.06-0.1,0.09l-2.01,1.39l1.36,2.34l2.1-0.99c0.03-0.02,0.07-0.04,0.1-0.05c0.05-0.03,0.11-0.05,0.17-0.06
					c0.06-0.01,0.11-0.02,0.17-0.02c0.08,0,0.17,0.02,0.24,0.04c0.05,0.02,0.1,0.04,0.15,0.07c0.02,0.01,0.04,0.02,0.05,0.03
					c0.05,0.03,0.09,0.07,0.13,0.11c1.15,1.21,2.62,2.07,4.23,2.47c0.01,0,0.03,0.01,0.04,0.01c0.08,0.02,0.16,0.05,0.22,0.1
					c0.04,0.02,0.08,0.05,0.12,0.09c0.02,0.01,0.03,0.03,0.05,0.05c0.02,0.01,0.03,0.03,0.04,0.05c0.03,0.03,0.05,0.07,0.07,0.11
					c0.02,0.03,0.04,0.06,0.05,0.09c0.02,0.06,0.03,0.12,0.04,0.18c0.01,0.01,0.01,0.03,0.01,0.04l0.2,2.43h2.7l0.2-2.43
					c0-0.01,0-0.03,0.01-0.04c0-0.04,0.01-0.07,0.02-0.11c0.01-0.05,0.03-0.1,0.06-0.14c0.02-0.04,0.05-0.09,0.08-0.13
					c0.06-0.08,0.13-0.15,0.21-0.19c0.06-0.05,0.14-0.08,0.21-0.1c0.02,0,0.03-0.01,0.05-0.01c1.62-0.41,3.07-1.25,4.22-2.45
					c0.04-0.04,0.08-0.08,0.13-0.11c0.01-0.01,0.03-0.02,0.05-0.03c0.05-0.03,0.1-0.05,0.15-0.07c0.08-0.02,0.17-0.04,0.24-0.04
					c0.06,0,0.11,0.01,0.17,0.02c0.06,0.01,0.12,0.03,0.17,0.06c0.03,0.01,0.07,0.03,0.1,0.05l2.11,0.99l1.36-2.33l-2-1.39
					C60.14,18.37,60.11,18.34,60.08,18.31z M55.81,19.57c-1.21,1.2-2.81,1.86-4.51,1.86c-0.01,0-0.01,0-0.01,0
					c-3.52,0-6.39-2.87-6.38-6.39c0-3.52,2.87-6.38,6.39-6.38c1.71,0,3.31,0.66,4.52,1.87c1.21,1.21,1.86,2.81,1.86,4.52
					C57.69,16.76,57.02,18.36,55.81,19.57z"></path>
  <path fill="#8a8bc4" d="M52.4,28.39v21.5c0,0.81-0.66,1.45-1.46,1.45H3.02c-0.81,0-1.46-0.64-1.46-1.45V16.27
					c0-0.81,0.65-1.46,1.46-1.46h37.81c-0.01,0.08-0.01,0.15-0.01,0.22c0,0.38,0.02,0.76,0.07,1.13H4.33
					c-0.43,0-0.78,0.35-0.78,0.78v32.27C3.55,49.66,3.9,50,4.33,50h45.31c0.43,0,0.78-0.34,0.78-0.78V28.39H52.4z"></path>
  <path fill="#e1e9ff" d="M48.44,27.68l-0.21-2.6c-1.52-0.47-2.92-1.28-4.08-2.37l-2.36,1.11c-0.11,0.06-0.21,0.08-0.33,0.08
			c-0.26,0-0.53-0.14-0.67-0.39l-2.07-3.59c-0.2-0.35-0.11-0.8,0.23-1.03l1.67-1.15H5.11v30.72h43.75V28.29
			C48.62,28.18,48.47,27.95,48.44,27.68z M23.1,40.47c0.3,0.31,0.29,0.8-0.01,1.1c-0.16,0.16-0.35,0.22-0.55,0.22
			c-0.2,0-0.4-0.07-0.56-0.22l-7.84-7.94c-0.29-0.3-0.29-0.79,0-1.1l7.84-7.93c0.3-0.3,0.8-0.3,1.1,0c0.31,0.3,0.31,0.79,0.01,1.1
			l-7.3,7.39L23.1,40.47z M35.31,41.01c0,0.44-0.34,0.78-0.78,0.78c-0.43,0-0.78-0.34-0.78-0.78v-1.17c0-0.43,0.35-0.78,0.78-0.78
			c0.44,0,0.78,0.35,0.78,0.78V41.01z M36.6,33.33c-0.74,0.19-1.27,0.87-1.27,1.68v2.2c0,0.43-0.35,0.78-0.78,0.78
			c-0.43,0-0.78-0.35-0.78-0.78V35c0-1.52,1.01-2.84,2.45-3.2c1.33-0.33,2.25-1.52,2.25-2.9c0-0.76-0.32-1.5-0.9-2.09
			c-1.17-1.16-3.08-1.12-4.2-0.02c-0.57,0.57-0.87,1.32-0.87,2.11c0,0.43-0.35,0.78-0.78,0.78c-0.44,0-0.78-0.35-0.78-0.78
			c0-1.21,0.47-2.35,1.33-3.21c0.86-0.86,2-1.33,3.21-1.33c1.19,0,2.32,0.48,3.19,1.35c0.88,0.88,1.36,2.01,1.36,3.19
			C40.03,31,38.61,32.82,36.6,33.33z"></path>
  <path d="M51.3,21.43C51.3,21.43,51.3,21.43,51.3,21.43c1.71,0,3.31-0.66,4.52-1.86c1.21-1.21,1.87-2.81,1.87-4.52
		c0-1.71-0.65-3.31-1.86-4.52c-1.21-1.21-2.81-1.87-4.52-1.87c-3.52,0-6.39,2.86-6.39,6.38C44.91,18.57,47.78,21.43,51.3,21.43z
		 M51.31,10.22c1.29,0,2.5,0.5,3.41,1.41c0.91,0.92,1.4,2.13,1.4,3.41c0,1.29-0.51,2.5-1.41,3.41c-0.92,0.91-2.13,1.4-3.4,1.4
		c-0.01,0-0.01,0-0.01,0c-2.66,0-4.83-2.17-4.82-4.83C46.48,12.38,48.64,10.22,51.31,10.22z"></path>
  <path d="M3.02,52.91h15.44l-1.3,3.6H14.6c-1,0-1.8,0.81-1.8,1.8v2.17c0,1,0.81,1.81,1.8,1.81h24.74c1,0,1.81-0.82,1.81-1.81v-2.17
		c0-1-0.82-1.8-1.81-1.8h-2.56l-1.3-3.6h15.45c1.66,0,3.01-1.35,3.01-3.01V28.11c0.11-0.12,0.17-0.26,0.19-0.43l0.22-2.6
		c1.53-0.45,2.92-1.26,4.08-2.35l2.36,1.11c0.11,0.06,0.22,0.08,0.33,0.08c0.27,0,0.53-0.14,0.67-0.39l2.08-3.58
		c0.2-0.35,0.11-0.8-0.22-1.03l-2.15-1.49c0.19-0.77,0.27-1.56,0.27-2.35c0-0.81-0.09-1.6-0.27-2.36l2.16-1.48
		c0.33-0.23,0.43-0.68,0.22-1.03l-2.07-3.59c-0.2-0.35-0.63-0.49-1-0.31l-2.37,1.11c-1.17-1.1-2.56-1.91-4.07-2.37l-0.21-2.6
		c-0.04-0.41-0.37-0.72-0.78-0.72h-4.14c-0.4,0-0.74,0.31-0.78,0.72l-0.21,2.59c-1.51,0.46-2.91,1.26-4.08,2.37L41.8,6.26
		c-0.36-0.18-0.8-0.04-1,0.31l-2.07,3.58c-0.2,0.35-0.11,0.8,0.23,1.03l2.14,1.48c-0.05,0.19-0.09,0.38-0.12,0.58H3.02
		C1.36,13.25,0,14.6,0,16.27v33.62C0,51.56,1.36,52.91,3.02,52.91z M39.6,58.31v2.17c0,0.14-0.12,0.25-0.25,0.25H14.6
		c-0.14,0-0.24-0.12-0.24-0.25v-2.17c0-0.14,0.12-0.24,0.24-0.24h24.74C39.48,58.07,39.6,58.18,39.6,58.31z M35.13,56.51H18.83
		l1.3-3.6h13.7L35.13,56.51z M40.43,10.31l1.36-2.33l2.2,1.04c0.05,0.02,0.11,0.04,0.17,0.05c0.05,0.01,0.1,0.02,0.15,0.02
		c0.01,0,0.01,0,0.02,0c0.08,0,0.17-0.01,0.24-0.04c0.05-0.02,0.11-0.04,0.15-0.07c0.02,0,0.04-0.01,0.05-0.03
		c0.05-0.02,0.09-0.06,0.13-0.1c1.17-1.22,2.61-2.07,4.21-2.47h0.01c0.02,0,0.04-0.01,0.06-0.01c0.04-0.01,0.07-0.02,0.11-0.04
		c0.26-0.11,0.46-0.35,0.49-0.65l0.2-2.42h2.69l0.2,2.43c0.01,0.08,0.03,0.15,0.06,0.21c0.01,0.03,0.02,0.06,0.04,0.09
		c0.03,0.06,0.06,0.11,0.11,0.16c0.1,0.12,0.23,0.2,0.39,0.23c0.01,0,0.03,0.01,0.04,0.01c1.6,0.39,3.07,1.25,4.23,2.47
		c0.05,0.05,0.1,0.09,0.16,0.12c0.04,0.03,0.09,0.05,0.14,0.07c0.04,0.01,0.08,0.03,0.11,0.04c0.01-0.01,0.02,0,0.03,0
		c0.05,0.01,0.09,0.01,0.14,0.01c0.05,0,0.1,0,0.15-0.01c0.07-0.02,0.13-0.04,0.19-0.06L60.83,8l1.36,2.34l-2.01,1.39
		c-0.06,0.05-0.12,0.1-0.16,0.16c-0.04,0.04-0.07,0.09-0.09,0.14c-0.02,0.04-0.04,0.08-0.05,0.12c-0.01,0.03-0.02,0.06-0.03,0.1
		c-0.02,0.12-0.02,0.24,0.02,0.36c0,0.01,0,0.01,0.01,0.02c0.22,0.77,0.34,1.6,0.34,2.45c0,0.83-0.12,1.66-0.34,2.46
		c-0.01,0.01-0.01,0.01-0.01,0.02c-0.07,0.24-0.02,0.49,0.13,0.68c0.02,0.03,0.05,0.06,0.08,0.09c0.03,0.03,0.06,0.06,0.1,0.09
		l2,1.39l-1.36,2.33l-2.11-0.99c-0.03-0.02-0.07-0.04-0.1-0.05c-0.06-0.03-0.11-0.05-0.17-0.06C58.39,21.01,58.34,21,58.28,21
		c-0.08,0-0.17,0.02-0.24,0.04c-0.05,0.02-0.1,0.04-0.15,0.07c-0.02,0.01-0.04,0.02-0.05,0.03c-0.05,0.03-0.09,0.07-0.13,0.11
		c-1.15,1.2-2.6,2.04-4.22,2.45c-0.02,0-0.03,0.01-0.05,0.01c-0.08,0.02-0.16,0.05-0.21,0.1c-0.02,0.01-0.04,0.02-0.06,0.04
		c-0.02,0.02-0.04,0.03-0.06,0.05c-0.04,0.03-0.07,0.06-0.1,0.1c-0.03,0.04-0.06,0.09-0.08,0.13c-0.03,0.04-0.05,0.09-0.06,0.14
		c-0.01,0.04-0.02,0.07-0.02,0.11c-0.01,0.01-0.01,0.03-0.01,0.04l-0.2,2.43h-2.7l-0.2-2.43c0-0.01,0-0.03-0.01-0.04
		c-0.01-0.06-0.02-0.12-0.04-0.18c-0.01-0.03-0.03-0.06-0.05-0.09c-0.02-0.04-0.04-0.08-0.07-0.11c-0.01-0.02-0.02-0.04-0.04-0.05
		c-0.02-0.02-0.03-0.04-0.05-0.05c-0.04-0.04-0.08-0.07-0.12-0.09c-0.07-0.05-0.15-0.08-0.22-0.1c-0.01,0-0.03-0.01-0.04-0.01
		c-1.61-0.4-3.08-1.26-4.23-2.47c-0.04-0.04-0.08-0.08-0.13-0.11c-0.01-0.01-0.03-0.02-0.05-0.03c-0.05-0.03-0.1-0.05-0.15-0.07
		c-0.08-0.02-0.17-0.04-0.24-0.04c-0.06,0-0.11,0.01-0.17,0.02c-0.06,0.01-0.12,0.03-0.17,0.06c-0.03,0.01-0.07,0.03-0.1,0.05
		l-2.1,0.99l-1.36-2.34l2.01-1.39c0.03-0.03,0.07-0.06,0.1-0.09c0.03-0.02,0.06-0.05,0.08-0.09c0.05-0.07,0.09-0.15,0.12-0.23
		c0.01-0.03,0.02-0.06,0.03-0.1c0.02-0.12,0.02-0.23-0.02-0.36c-0.06-0.2-0.11-0.39-0.16-0.6c0-0.05-0.01-0.09-0.02-0.13
		c-0.12-0.57-0.18-1.15-0.18-1.75c0-0.33,0.02-0.67,0.06-1c0.05-0.48,0.15-0.96,0.28-1.42c0-0.02,0.01-0.03,0.01-0.05
		c0.02-0.07,0.03-0.15,0.03-0.21c0-0.13-0.03-0.25-0.09-0.36c-0.03-0.06-0.06-0.11-0.1-0.15c-0.04-0.05-0.09-0.1-0.15-0.14
		L40.43,10.31z M38.71,19.91l2.07,3.59c0.15,0.25,0.41,0.39,0.67,0.39c0.12,0,0.22-0.02,0.33-0.08l2.36-1.11
		c1.16,1.09,2.56,1.9,4.08,2.37l0.21,2.6c0.03,0.27,0.19,0.5,0.42,0.61v20.16H5.11V17.73h35.5l-1.67,1.15
		C38.61,19.11,38.51,19.56,38.71,19.91z M1.56,16.27c0-0.81,0.65-1.46,1.46-1.46h37.81c-0.01,0.08-0.01,0.15-0.01,0.22
		c0,0.38,0.02,0.76,0.07,1.13H4.33c-0.43,0-0.78,0.35-0.78,0.78v32.27C3.55,49.66,3.9,50,4.33,50h45.31c0.43,0,0.78-0.34,0.78-0.78
		V28.39h1.98v21.5c0,0.81-0.66,1.45-1.46,1.45H3.02c-0.81,0-1.46-0.64-1.46-1.45V16.27z"></path>
  <path d="M23.09 24.6c-.3-.3-.8-.3-1.1 0l-7.84 7.93c-.29.31-.29.8 0 1.1l7.84 7.94c.16.16.35.22.56.22.2 0 .39-.07.55-.22.3-.3.31-.79.01-1.1l-7.3-7.39 7.3-7.39C23.41 25.39 23.41 24.9 23.09 24.6zM32.27 25.7c-.86.86-1.33 2-1.33 3.21 0 .43.34.78.78.78.43 0 .78-.35.78-.78 0-.79.3-1.54.87-2.11 1.11-1.1 3.02-1.14 4.2.02.58.59.9 1.33.9 2.09 0 1.38-.93 2.57-2.25 2.9-1.43.36-2.45 1.68-2.45 3.2v2.2c0 .43.35.78.78.78.43 0 .78-.35.78-.78V35c0-.81.53-1.49 1.27-1.68 2.02-.51 3.43-2.32 3.43-4.42 0-1.18-.48-2.31-1.36-3.19-.87-.87-2-1.35-3.19-1.35C34.27 24.37 33.13 24.84 32.27 25.7zM34.53 39.06c-.43 0-.78.35-.78.78v1.17c0 .44.35.78.78.78.44 0 .78-.34.78-.78v-1.17C35.31 39.41 34.97 39.06 34.53 39.06z"></path>
</svg>
